<?xml version="1.0" encoding="utf-8" standalone="no"?>
<!DOCTYPE svg PUBLIC "-//W3C//DTD SVG 1.1//EN"
  "http://www.w3.org/Graphics/SVG/1.1/DTD/svg11.dtd">
<svg xmlns:xlink="http://www.w3.org/1999/xlink" width="856.297969pt" height="264.634375pt" viewBox="0 0 856.297969 264.634375" xmlns="http://www.w3.org/2000/svg" version="1.1">
 <metadata>
  <rdf:RDF xmlns:dc="http://purl.org/dc/elements/1.1/" xmlns:cc="http://creativecommons.org/ns#" xmlns:rdf="http://www.w3.org/1999/02/22-rdf-syntax-ns#">
   <cc:Work>
    <dc:type rdf:resource="http://purl.org/dc/dcmitype/StillImage"/>
    <dc:date>2026-04-21T21:10:06.102130</dc:date>
    <dc:format>image/svg+xml</dc:format>
    <dc:creator>
     <cc:Agent>
      <dc:title>Matplotlib v3.10.8, https://matplotlib.org/</dc:title>
     </cc:Agent>
    </dc:creator>
   </cc:Work>
  </rdf:RDF>
 </metadata>
 <defs>
  <style type="text/css">*{stroke-linejoin: round; stroke-linecap: butt}</style>
 </defs>
 <g id="figure_1">
  <g id="patch_1">
   <path d="M 0 264.634375 
L 856.297969 264.634375 
L 856.297969 0 
L 0 0 
z
" style="fill: #ffffff"/>
  </g>
  <g id="axes_1">
   <g id="patch_2">
    <path d="M 196.937969 227.078125 
L 849.097969 227.078125 
L 849.097969 22.318125 
L 196.937969 22.318125 
z
" style="fill: #ffffff"/>
   </g>
   <g id="patch_3">
    <path d="M 196.937969 217.770852 
L 779.223683 217.770852 
L 779.223683 200.082823 
L 196.937969 200.082823 
z
" clip-path="url(#p26fb15be67)" style="fill: #1f77b4"/>
   </g>
   <g id="patch_4">
    <path d="M 196.937969 175.656496 
L 196.937969 175.656496 
L 196.937969 157.968466 
L 196.937969 157.968466 
z
" clip-path="url(#p26fb15be67)" style="fill: #1f77b4"/>
   </g>
   <g id="patch_5">
    <path d="M 196.937969 133.54214 
L 779.223683 133.54214 
L 779.223683 115.85411 
L 196.937969 115.85411 
z
" clip-path="url(#p26fb15be67)" style="fill: #1f77b4"/>
   </g>
   <g id="patch_6">
    <path d="M 196.937969 91.427784 
L 196.937969 91.427784 
L 196.937969 73.739754 
L 196.937969 73.739754 
z
" clip-path="url(#p26fb15be67)" style="fill: #1f77b4"/>
   </g>
   <g id="patch_7">
    <path d="M 196.937969 49.313427 
L 196.937969 49.313427 
L 196.937969 31.625398 
L 196.937969 31.625398 
z
" clip-path="url(#p26fb15be67)" style="fill: #1f77b4"/>
   </g>
   <g id="matplotlib.axis_1">
    <g id="xtick_1">
     <g id="line2d_1">
      <path d="M 196.937969 227.078125 
L 196.937969 22.318125 
" clip-path="url(#p26fb15be67)" style="fill: none; stroke: #b0b0b0; stroke-opacity: 0.25; stroke-width: 0.8; stroke-linecap: square"/>
     </g>
     <g id="line2d_2">
      <defs>
       <path id="m63b384282d" d="M 0 0 
L 0 3.5 
" style="stroke: #000000; stroke-width: 0.8"/>
      </defs>
      <g>
       <use xlink:href="#m63b384282d" x="196.937969" y="227.078125" style="stroke: #000000; stroke-width: 0.8"/>
      </g>
     </g>
     <g id="text_1">
      <!-- 0.00 -->
      <g transform="translate(185.805156 241.676562) scale(0.1 -0.1)">
       <defs>
        <path id="DejaVuSans-30" d="M 2034 4250 
Q 1547 4250 1301 3770 
Q 1056 3291 1056 2328 
Q 1056 1369 1301 889 
Q 1547 409 2034 409 
Q 2525 409 2770 889 
Q 3016 1369 3016 2328 
Q 3016 3291 2770 3770 
Q 2525 4250 2034 4250 
z
M 2034 4750 
Q 2819 4750 3233 4129 
Q 3647 3509 3647 2328 
Q 3647 1150 3233 529 
Q 2819 -91 2034 -91 
Q 1250 -91 836 529 
Q 422 1150 422 2328 
Q 422 3509 836 4129 
Q 1250 4750 2034 4750 
z
" transform="scale(0.015625)"/>
        <path id="DejaVuSans-2e" d="M 684 794 
L 1344 794 
L 1344 0 
L 684 0 
L 684 794 
z
" transform="scale(0.015625)"/>
       </defs>
       <use xlink:href="#DejaVuSans-30"/>
       <use xlink:href="#DejaVuSans-2e" transform="translate(63.623047 0)"/>
       <use xlink:href="#DejaVuSans-30" transform="translate(95.410156 0)"/>
       <use xlink:href="#DejaVuSans-30" transform="translate(159.033203 0)"/>
      </g>
     </g>
    </g>
    <g id="xtick_2">
     <g id="line2d_3">
      <path d="M 269.723683 227.078125 
L 269.723683 22.318125 
" clip-path="url(#p26fb15be67)" style="fill: none; stroke: #b0b0b0; stroke-opacity: 0.25; stroke-width: 0.8; stroke-linecap: square"/>
     </g>
     <g id="line2d_4">
      <g>
       <use xlink:href="#m63b384282d" x="269.723683" y="227.078125" style="stroke: #000000; stroke-width: 0.8"/>
      </g>
     </g>
     <g id="text_2">
      <!-- 0.25 -->
      <g transform="translate(258.590871 241.676562) scale(0.1 -0.1)">
       <defs>
        <path id="DejaVuSans-32" d="M 1228 531 
L 3431 531 
L 3431 0 
L 469 0 
L 469 531 
Q 828 903 1448 1529 
Q 2069 2156 2228 2338 
Q 2531 2678 2651 2914 
Q 2772 3150 2772 3378 
Q 2772 3750 2511 3984 
Q 2250 4219 1831 4219 
Q 1534 4219 1204 4116 
Q 875 4013 500 3803 
L 500 4441 
Q 881 4594 1212 4672 
Q 1544 4750 1819 4750 
Q 2544 4750 2975 4387 
Q 3406 4025 3406 3419 
Q 3406 3131 3298 2873 
Q 3191 2616 2906 2266 
Q 2828 2175 2409 1742 
Q 1991 1309 1228 531 
z
" transform="scale(0.015625)"/>
        <path id="DejaVuSans-35" d="M 691 4666 
L 3169 4666 
L 3169 4134 
L 1269 4134 
L 1269 2991 
Q 1406 3038 1543 3061 
Q 1681 3084 1819 3084 
Q 2600 3084 3056 2656 
Q 3513 2228 3513 1497 
Q 3513 744 3044 326 
Q 2575 -91 1722 -91 
Q 1428 -91 1123 -41 
Q 819 9 494 109 
L 494 744 
Q 775 591 1075 516 
Q 1375 441 1709 441 
Q 2250 441 2565 725 
Q 2881 1009 2881 1497 
Q 2881 1984 2565 2268 
Q 2250 2553 1709 2553 
Q 1456 2553 1204 2497 
Q 953 2441 691 2322 
L 691 4666 
z
" transform="scale(0.015625)"/>
       </defs>
       <use xlink:href="#DejaVuSans-30"/>
       <use xlink:href="#DejaVuSans-2e" transform="translate(63.623047 0)"/>
       <use xlink:href="#DejaVuSans-32" transform="translate(95.410156 0)"/>
       <use xlink:href="#DejaVuSans-35" transform="translate(159.033203 0)"/>
      </g>
     </g>
    </g>
    <g id="xtick_3">
     <g id="line2d_5">
      <path d="M 342.509397 227.078125 
L 342.509397 22.318125 
" clip-path="url(#p26fb15be67)" style="fill: none; stroke: #b0b0b0; stroke-opacity: 0.25; stroke-width: 0.8; stroke-linecap: square"/>
     </g>
     <g id="line2d_6">
      <g>
       <use xlink:href="#m63b384282d" x="342.509397" y="227.078125" style="stroke: #000000; stroke-width: 0.8"/>
      </g>
     </g>
     <g id="text_3">
      <!-- 0.50 -->
      <g transform="translate(331.376585 241.676562) scale(0.1 -0.1)">
       <use xlink:href="#DejaVuSans-30"/>
       <use xlink:href="#DejaVuSans-2e" transform="translate(63.623047 0)"/>
       <use xlink:href="#DejaVuSans-35" transform="translate(95.410156 0)"/>
       <use xlink:href="#DejaVuSans-30" transform="translate(159.033203 0)"/>
      </g>
     </g>
    </g>
    <g id="xtick_4">
     <g id="line2d_7">
      <path d="M 415.295112 227.078125 
L 415.295112 22.318125 
" clip-path="url(#p26fb15be67)" style="fill: none; stroke: #b0b0b0; stroke-opacity: 0.25; stroke-width: 0.8; stroke-linecap: square"/>
     </g>
     <g id="line2d_8">
      <g>
       <use xlink:href="#m63b384282d" x="415.295112" y="227.078125" style="stroke: #000000; stroke-width: 0.8"/>
      </g>
     </g>
     <g id="text_4">
      <!-- 0.75 -->
      <g transform="translate(404.162299 241.676562) scale(0.1 -0.1)">
       <defs>
        <path id="DejaVuSans-37" d="M 525 4666 
L 3525 4666 
L 3525 4397 
L 1831 0 
L 1172 0 
L 2766 4134 
L 525 4134 
L 525 4666 
z
" transform="scale(0.015625)"/>
       </defs>
       <use xlink:href="#DejaVuSans-30"/>
       <use xlink:href="#DejaVuSans-2e" transform="translate(63.623047 0)"/>
       <use xlink:href="#DejaVuSans-37" transform="translate(95.410156 0)"/>
       <use xlink:href="#DejaVuSans-35" transform="translate(159.033203 0)"/>
      </g>
     </g>
    </g>
    <g id="xtick_5">
     <g id="line2d_9">
      <path d="M 488.080826 227.078125 
L 488.080826 22.318125 
" clip-path="url(#p26fb15be67)" style="fill: none; stroke: #b0b0b0; stroke-opacity: 0.25; stroke-width: 0.8; stroke-linecap: square"/>
     </g>
     <g id="line2d_10">
      <g>
       <use xlink:href="#m63b384282d" x="488.080826" y="227.078125" style="stroke: #000000; stroke-width: 0.8"/>
      </g>
     </g>
     <g id="text_5">
      <!-- 1.00 -->
      <g transform="translate(476.948013 241.676562) scale(0.1 -0.1)">
       <defs>
        <path id="DejaVuSans-31" d="M 794 531 
L 1825 531 
L 1825 4091 
L 703 3866 
L 703 4441 
L 1819 4666 
L 2450 4666 
L 2450 531 
L 3481 531 
L 3481 0 
L 794 0 
L 794 531 
z
" transform="scale(0.015625)"/>
       </defs>
       <use xlink:href="#DejaVuSans-31"/>
       <use xlink:href="#DejaVuSans-2e" transform="translate(63.623047 0)"/>
       <use xlink:href="#DejaVuSans-30" transform="translate(95.410156 0)"/>
       <use xlink:href="#DejaVuSans-30" transform="translate(159.033203 0)"/>
      </g>
     </g>
    </g>
    <g id="xtick_6">
     <g id="line2d_11">
      <path d="M 560.86654 227.078125 
L 560.86654 22.318125 
" clip-path="url(#p26fb15be67)" style="fill: none; stroke: #b0b0b0; stroke-opacity: 0.25; stroke-width: 0.8; stroke-linecap: square"/>
     </g>
     <g id="line2d_12">
      <g>
       <use xlink:href="#m63b384282d" x="560.86654" y="227.078125" style="stroke: #000000; stroke-width: 0.8"/>
      </g>
     </g>
     <g id="text_6">
      <!-- 1.25 -->
      <g transform="translate(549.733728 241.676562) scale(0.1 -0.1)">
       <use xlink:href="#DejaVuSans-31"/>
       <use xlink:href="#DejaVuSans-2e" transform="translate(63.623047 0)"/>
       <use xlink:href="#DejaVuSans-32" transform="translate(95.410156 0)"/>
       <use xlink:href="#DejaVuSans-35" transform="translate(159.033203 0)"/>
      </g>
     </g>
    </g>
    <g id="xtick_7">
     <g id="line2d_13">
      <path d="M 633.652254 227.078125 
L 633.652254 22.318125 
" clip-path="url(#p26fb15be67)" style="fill: none; stroke: #b0b0b0; stroke-opacity: 0.25; stroke-width: 0.8; stroke-linecap: square"/>
     </g>
     <g id="line2d_14">
      <g>
       <use xlink:href="#m63b384282d" x="633.652254" y="227.078125" style="stroke: #000000; stroke-width: 0.8"/>
      </g>
     </g>
     <g id="text_7">
      <!-- 1.50 -->
      <g transform="translate(622.519442 241.676562) scale(0.1 -0.1)">
       <use xlink:href="#DejaVuSans-31"/>
       <use xlink:href="#DejaVuSans-2e" transform="translate(63.623047 0)"/>
       <use xlink:href="#DejaVuSans-35" transform="translate(95.410156 0)"/>
       <use xlink:href="#DejaVuSans-30" transform="translate(159.033203 0)"/>
      </g>
     </g>
    </g>
    <g id="xtick_8">
     <g id="line2d_15">
      <path d="M 706.437969 227.078125 
L 706.437969 22.318125 
" clip-path="url(#p26fb15be67)" style="fill: none; stroke: #b0b0b0; stroke-opacity: 0.25; stroke-width: 0.8; stroke-linecap: square"/>
     </g>
     <g id="line2d_16">
      <g>
       <use xlink:href="#m63b384282d" x="706.437969" y="227.078125" style="stroke: #000000; stroke-width: 0.8"/>
      </g>
     </g>
     <g id="text_8">
      <!-- 1.75 -->
      <g transform="translate(695.305156 241.676562) scale(0.1 -0.1)">
       <use xlink:href="#DejaVuSans-31"/>
       <use xlink:href="#DejaVuSans-2e" transform="translate(63.623047 0)"/>
       <use xlink:href="#DejaVuSans-37" transform="translate(95.410156 0)"/>
       <use xlink:href="#DejaVuSans-35" transform="translate(159.033203 0)"/>
      </g>
     </g>
    </g>
    <g id="xtick_9">
     <g id="line2d_17">
      <path d="M 779.223683 227.078125 
L 779.223683 22.318125 
" clip-path="url(#p26fb15be67)" style="fill: none; stroke: #b0b0b0; stroke-opacity: 0.25; stroke-width: 0.8; stroke-linecap: square"/>
     </g>
     <g id="line2d_18">
      <g>
       <use xlink:href="#m63b384282d" x="779.223683" y="227.078125" style="stroke: #000000; stroke-width: 0.8"/>
      </g>
     </g>
     <g id="text_9">
      <!-- 2.00 -->
      <g transform="translate(768.090871 241.676562) scale(0.1 -0.1)">
       <use xlink:href="#DejaVuSans-32"/>
       <use xlink:href="#DejaVuSans-2e" transform="translate(63.623047 0)"/>
       <use xlink:href="#DejaVuSans-30" transform="translate(95.410156 0)"/>
       <use xlink:href="#DejaVuSans-30" transform="translate(159.033203 0)"/>
      </g>
     </g>
    </g>
    <g id="text_10">
     <!-- allocs/op -->
     <g transform="translate(500.844531 255.354687) scale(0.1 -0.1)">
      <defs>
       <path id="DejaVuSans-61" d="M 2194 1759 
Q 1497 1759 1228 1600 
Q 959 1441 959 1056 
Q 959 750 1161 570 
Q 1363 391 1709 391 
Q 2188 391 2477 730 
Q 2766 1069 2766 1631 
L 2766 1759 
L 2194 1759 
z
M 3341 1997 
L 3341 0 
L 2766 0 
L 2766 531 
Q 2569 213 2275 61 
Q 1981 -91 1556 -91 
Q 1019 -91 701 211 
Q 384 513 384 1019 
Q 384 1609 779 1909 
Q 1175 2209 1959 2209 
L 2766 2209 
L 2766 2266 
Q 2766 2663 2505 2880 
Q 2244 3097 1772 3097 
Q 1472 3097 1187 3025 
Q 903 2953 641 2809 
L 641 3341 
Q 956 3463 1253 3523 
Q 1550 3584 1831 3584 
Q 2591 3584 2966 3190 
Q 3341 2797 3341 1997 
z
" transform="scale(0.015625)"/>
       <path id="DejaVuSans-6c" d="M 603 4863 
L 1178 4863 
L 1178 0 
L 603 0 
L 603 4863 
z
" transform="scale(0.015625)"/>
       <path id="DejaVuSans-6f" d="M 1959 3097 
Q 1497 3097 1228 2736 
Q 959 2375 959 1747 
Q 959 1119 1226 758 
Q 1494 397 1959 397 
Q 2419 397 2687 759 
Q 2956 1122 2956 1747 
Q 2956 2369 2687 2733 
Q 2419 3097 1959 3097 
z
M 1959 3584 
Q 2709 3584 3137 3096 
Q 3566 2609 3566 1747 
Q 3566 888 3137 398 
Q 2709 -91 1959 -91 
Q 1206 -91 779 398 
Q 353 888 353 1747 
Q 353 2609 779 3096 
Q 1206 3584 1959 3584 
z
" transform="scale(0.015625)"/>
       <path id="DejaVuSans-63" d="M 3122 3366 
L 3122 2828 
Q 2878 2963 2633 3030 
Q 2388 3097 2138 3097 
Q 1578 3097 1268 2742 
Q 959 2388 959 1747 
Q 959 1106 1268 751 
Q 1578 397 2138 397 
Q 2388 397 2633 464 
Q 2878 531 3122 666 
L 3122 134 
Q 2881 22 2623 -34 
Q 2366 -91 2075 -91 
Q 1284 -91 818 406 
Q 353 903 353 1747 
Q 353 2603 823 3093 
Q 1294 3584 2113 3584 
Q 2378 3584 2631 3529 
Q 2884 3475 3122 3366 
z
" transform="scale(0.015625)"/>
       <path id="DejaVuSans-73" d="M 2834 3397 
L 2834 2853 
Q 2591 2978 2328 3040 
Q 2066 3103 1784 3103 
Q 1356 3103 1142 2972 
Q 928 2841 928 2578 
Q 928 2378 1081 2264 
Q 1234 2150 1697 2047 
L 1894 2003 
Q 2506 1872 2764 1633 
Q 3022 1394 3022 966 
Q 3022 478 2636 193 
Q 2250 -91 1575 -91 
Q 1294 -91 989 -36 
Q 684 19 347 128 
L 347 722 
Q 666 556 975 473 
Q 1284 391 1588 391 
Q 1994 391 2212 530 
Q 2431 669 2431 922 
Q 2431 1156 2273 1281 
Q 2116 1406 1581 1522 
L 1381 1569 
Q 847 1681 609 1914 
Q 372 2147 372 2553 
Q 372 3047 722 3315 
Q 1072 3584 1716 3584 
Q 2034 3584 2315 3537 
Q 2597 3491 2834 3397 
z
" transform="scale(0.015625)"/>
       <path id="DejaVuSans-2f" d="M 1625 4666 
L 2156 4666 
L 531 -594 
L 0 -594 
L 1625 4666 
z
" transform="scale(0.015625)"/>
       <path id="DejaVuSans-70" d="M 1159 525 
L 1159 -1331 
L 581 -1331 
L 581 3500 
L 1159 3500 
L 1159 2969 
Q 1341 3281 1617 3432 
Q 1894 3584 2278 3584 
Q 2916 3584 3314 3078 
Q 3713 2572 3713 1747 
Q 3713 922 3314 415 
Q 2916 -91 2278 -91 
Q 1894 -91 1617 61 
Q 1341 213 1159 525 
z
M 3116 1747 
Q 3116 2381 2855 2742 
Q 2594 3103 2138 3103 
Q 1681 3103 1420 2742 
Q 1159 2381 1159 1747 
Q 1159 1113 1420 752 
Q 1681 391 2138 391 
Q 2594 391 2855 752 
Q 3116 1113 3116 1747 
z
" transform="scale(0.015625)"/>
      </defs>
      <use xlink:href="#DejaVuSans-61"/>
      <use xlink:href="#DejaVuSans-6c" transform="translate(61.279297 0)"/>
      <use xlink:href="#DejaVuSans-6c" transform="translate(89.0625 0)"/>
      <use xlink:href="#DejaVuSans-6f" transform="translate(116.845703 0)"/>
      <use xlink:href="#DejaVuSans-63" transform="translate(178.027344 0)"/>
      <use xlink:href="#DejaVuSans-73" transform="translate(233.007812 0)"/>
      <use xlink:href="#DejaVuSans-2f" transform="translate(285.107422 0)"/>
      <use xlink:href="#DejaVuSans-6f" transform="translate(318.798828 0)"/>
      <use xlink:href="#DejaVuSans-70" transform="translate(379.980469 0)"/>
     </g>
    </g>
   </g>
   <g id="matplotlib.axis_2">
    <g id="ytick_1">
     <g id="line2d_19">
      <defs>
       <path id="m2c3f9c54e3" d="M 0 0 
L -3.5 0 
" style="stroke: #000000; stroke-width: 0.8"/>
      </defs>
      <g>
       <use xlink:href="#m2c3f9c54e3" x="196.937969" y="208.926837" style="stroke: #000000; stroke-width: 0.8"/>
      </g>
     </g>
     <g id="text_11">
      <!-- BenchmarkPaths_RealisticDropObserved -->
      <g transform="translate(7.2 212.346134) scale(0.09 -0.09)">
       <defs>
        <path id="DejaVuSans-42" d="M 1259 2228 
L 1259 519 
L 2272 519 
Q 2781 519 3026 730 
Q 3272 941 3272 1375 
Q 3272 1813 3026 2020 
Q 2781 2228 2272 2228 
L 1259 2228 
z
M 1259 4147 
L 1259 2741 
L 2194 2741 
Q 2656 2741 2882 2914 
Q 3109 3088 3109 3444 
Q 3109 3797 2882 3972 
Q 2656 4147 2194 4147 
L 1259 4147 
z
M 628 4666 
L 2241 4666 
Q 2963 4666 3353 4366 
Q 3744 4066 3744 3513 
Q 3744 3084 3544 2831 
Q 3344 2578 2956 2516 
Q 3422 2416 3680 2098 
Q 3938 1781 3938 1306 
Q 3938 681 3513 340 
Q 3088 0 2303 0 
L 628 0 
L 628 4666 
z
" transform="scale(0.015625)"/>
        <path id="DejaVuSans-65" d="M 3597 1894 
L 3597 1613 
L 953 1613 
Q 991 1019 1311 708 
Q 1631 397 2203 397 
Q 2534 397 2845 478 
Q 3156 559 3463 722 
L 3463 178 
Q 3153 47 2828 -22 
Q 2503 -91 2169 -91 
Q 1331 -91 842 396 
Q 353 884 353 1716 
Q 353 2575 817 3079 
Q 1281 3584 2069 3584 
Q 2775 3584 3186 3129 
Q 3597 2675 3597 1894 
z
M 3022 2063 
Q 3016 2534 2758 2815 
Q 2500 3097 2075 3097 
Q 1594 3097 1305 2825 
Q 1016 2553 972 2059 
L 3022 2063 
z
" transform="scale(0.015625)"/>
        <path id="DejaVuSans-6e" d="M 3513 2113 
L 3513 0 
L 2938 0 
L 2938 2094 
Q 2938 2591 2744 2837 
Q 2550 3084 2163 3084 
Q 1697 3084 1428 2787 
Q 1159 2491 1159 1978 
L 1159 0 
L 581 0 
L 581 3500 
L 1159 3500 
L 1159 2956 
Q 1366 3272 1645 3428 
Q 1925 3584 2291 3584 
Q 2894 3584 3203 3211 
Q 3513 2838 3513 2113 
z
" transform="scale(0.015625)"/>
        <path id="DejaVuSans-68" d="M 3513 2113 
L 3513 0 
L 2938 0 
L 2938 2094 
Q 2938 2591 2744 2837 
Q 2550 3084 2163 3084 
Q 1697 3084 1428 2787 
Q 1159 2491 1159 1978 
L 1159 0 
L 581 0 
L 581 4863 
L 1159 4863 
L 1159 2956 
Q 1366 3272 1645 3428 
Q 1925 3584 2291 3584 
Q 2894 3584 3203 3211 
Q 3513 2838 3513 2113 
z
" transform="scale(0.015625)"/>
        <path id="DejaVuSans-6d" d="M 3328 2828 
Q 3544 3216 3844 3400 
Q 4144 3584 4550 3584 
Q 5097 3584 5394 3201 
Q 5691 2819 5691 2113 
L 5691 0 
L 5113 0 
L 5113 2094 
Q 5113 2597 4934 2840 
Q 4756 3084 4391 3084 
Q 3944 3084 3684 2787 
Q 3425 2491 3425 1978 
L 3425 0 
L 2847 0 
L 2847 2094 
Q 2847 2600 2669 2842 
Q 2491 3084 2119 3084 
Q 1678 3084 1418 2786 
Q 1159 2488 1159 1978 
L 1159 0 
L 581 0 
L 581 3500 
L 1159 3500 
L 1159 2956 
Q 1356 3278 1631 3431 
Q 1906 3584 2284 3584 
Q 2666 3584 2933 3390 
Q 3200 3197 3328 2828 
z
" transform="scale(0.015625)"/>
        <path id="DejaVuSans-72" d="M 2631 2963 
Q 2534 3019 2420 3045 
Q 2306 3072 2169 3072 
Q 1681 3072 1420 2755 
Q 1159 2438 1159 1844 
L 1159 0 
L 581 0 
L 581 3500 
L 1159 3500 
L 1159 2956 
Q 1341 3275 1631 3429 
Q 1922 3584 2338 3584 
Q 2397 3584 2469 3576 
Q 2541 3569 2628 3553 
L 2631 2963 
z
" transform="scale(0.015625)"/>
        <path id="DejaVuSans-6b" d="M 581 4863 
L 1159 4863 
L 1159 1991 
L 2875 3500 
L 3609 3500 
L 1753 1863 
L 3688 0 
L 2938 0 
L 1159 1709 
L 1159 0 
L 581 0 
L 581 4863 
z
" transform="scale(0.015625)"/>
        <path id="DejaVuSans-50" d="M 1259 4147 
L 1259 2394 
L 2053 2394 
Q 2494 2394 2734 2622 
Q 2975 2850 2975 3272 
Q 2975 3691 2734 3919 
Q 2494 4147 2053 4147 
L 1259 4147 
z
M 628 4666 
L 2053 4666 
Q 2838 4666 3239 4311 
Q 3641 3956 3641 3272 
Q 3641 2581 3239 2228 
Q 2838 1875 2053 1875 
L 1259 1875 
L 1259 0 
L 628 0 
L 628 4666 
z
" transform="scale(0.015625)"/>
        <path id="DejaVuSans-74" d="M 1172 4494 
L 1172 3500 
L 2356 3500 
L 2356 3053 
L 1172 3053 
L 1172 1153 
Q 1172 725 1289 603 
Q 1406 481 1766 481 
L 2356 481 
L 2356 0 
L 1766 0 
Q 1100 0 847 248 
Q 594 497 594 1153 
L 594 3053 
L 172 3053 
L 172 3500 
L 594 3500 
L 594 4494 
L 1172 4494 
z
" transform="scale(0.015625)"/>
        <path id="DejaVuSans-5f" d="M 3263 -1063 
L 3263 -1509 
L -63 -1509 
L -63 -1063 
L 3263 -1063 
z
" transform="scale(0.015625)"/>
        <path id="DejaVuSans-52" d="M 2841 2188 
Q 3044 2119 3236 1894 
Q 3428 1669 3622 1275 
L 4263 0 
L 3584 0 
L 2988 1197 
Q 2756 1666 2539 1819 
Q 2322 1972 1947 1972 
L 1259 1972 
L 1259 0 
L 628 0 
L 628 4666 
L 2053 4666 
Q 2853 4666 3247 4331 
Q 3641 3997 3641 3322 
Q 3641 2881 3436 2590 
Q 3231 2300 2841 2188 
z
M 1259 4147 
L 1259 2491 
L 2053 2491 
Q 2509 2491 2742 2702 
Q 2975 2913 2975 3322 
Q 2975 3731 2742 3939 
Q 2509 4147 2053 4147 
L 1259 4147 
z
" transform="scale(0.015625)"/>
        <path id="DejaVuSans-69" d="M 603 3500 
L 1178 3500 
L 1178 0 
L 603 0 
L 603 3500 
z
M 603 4863 
L 1178 4863 
L 1178 4134 
L 603 4134 
L 603 4863 
z
" transform="scale(0.015625)"/>
        <path id="DejaVuSans-44" d="M 1259 4147 
L 1259 519 
L 2022 519 
Q 2988 519 3436 956 
Q 3884 1394 3884 2338 
Q 3884 3275 3436 3711 
Q 2988 4147 2022 4147 
L 1259 4147 
z
M 628 4666 
L 1925 4666 
Q 3281 4666 3915 4102 
Q 4550 3538 4550 2338 
Q 4550 1131 3912 565 
Q 3275 0 1925 0 
L 628 0 
L 628 4666 
z
" transform="scale(0.015625)"/>
        <path id="DejaVuSans-4f" d="M 2522 4238 
Q 1834 4238 1429 3725 
Q 1025 3213 1025 2328 
Q 1025 1447 1429 934 
Q 1834 422 2522 422 
Q 3209 422 3611 934 
Q 4013 1447 4013 2328 
Q 4013 3213 3611 3725 
Q 3209 4238 2522 4238 
z
M 2522 4750 
Q 3503 4750 4090 4092 
Q 4678 3434 4678 2328 
Q 4678 1225 4090 567 
Q 3503 -91 2522 -91 
Q 1538 -91 948 565 
Q 359 1222 359 2328 
Q 359 3434 948 4092 
Q 1538 4750 2522 4750 
z
" transform="scale(0.015625)"/>
        <path id="DejaVuSans-62" d="M 3116 1747 
Q 3116 2381 2855 2742 
Q 2594 3103 2138 3103 
Q 1681 3103 1420 2742 
Q 1159 2381 1159 1747 
Q 1159 1113 1420 752 
Q 1681 391 2138 391 
Q 2594 391 2855 752 
Q 3116 1113 3116 1747 
z
M 1159 2969 
Q 1341 3281 1617 3432 
Q 1894 3584 2278 3584 
Q 2916 3584 3314 3078 
Q 3713 2572 3713 1747 
Q 3713 922 3314 415 
Q 2916 -91 2278 -91 
Q 1894 -91 1617 61 
Q 1341 213 1159 525 
L 1159 0 
L 581 0 
L 581 4863 
L 1159 4863 
L 1159 2969 
z
" transform="scale(0.015625)"/>
        <path id="DejaVuSans-76" d="M 191 3500 
L 800 3500 
L 1894 563 
L 2988 3500 
L 3597 3500 
L 2284 0 
L 1503 0 
L 191 3500 
z
" transform="scale(0.015625)"/>
        <path id="DejaVuSans-64" d="M 2906 2969 
L 2906 4863 
L 3481 4863 
L 3481 0 
L 2906 0 
L 2906 525 
Q 2725 213 2448 61 
Q 2172 -91 1784 -91 
Q 1150 -91 751 415 
Q 353 922 353 1747 
Q 353 2572 751 3078 
Q 1150 3584 1784 3584 
Q 2172 3584 2448 3432 
Q 2725 3281 2906 2969 
z
M 947 1747 
Q 947 1113 1208 752 
Q 1469 391 1925 391 
Q 2381 391 2643 752 
Q 2906 1113 2906 1747 
Q 2906 2381 2643 2742 
Q 2381 3103 1925 3103 
Q 1469 3103 1208 2742 
Q 947 2381 947 1747 
z
" transform="scale(0.015625)"/>
       </defs>
       <use xlink:href="#DejaVuSans-42"/>
       <use xlink:href="#DejaVuSans-65" transform="translate(68.603516 0)"/>
       <use xlink:href="#DejaVuSans-6e" transform="translate(130.126953 0)"/>
       <use xlink:href="#DejaVuSans-63" transform="translate(193.505859 0)"/>
       <use xlink:href="#DejaVuSans-68" transform="translate(248.486328 0)"/>
       <use xlink:href="#DejaVuSans-6d" transform="translate(311.865234 0)"/>
       <use xlink:href="#DejaVuSans-61" transform="translate(409.277344 0)"/>
       <use xlink:href="#DejaVuSans-72" transform="translate(470.556641 0)"/>
       <use xlink:href="#DejaVuSans-6b" transform="translate(511.669922 0)"/>
       <use xlink:href="#DejaVuSans-50" transform="translate(569.580078 0)"/>
       <use xlink:href="#DejaVuSans-61" transform="translate(625.382812 0)"/>
       <use xlink:href="#DejaVuSans-74" transform="translate(686.662109 0)"/>
       <use xlink:href="#DejaVuSans-68" transform="translate(725.871094 0)"/>
       <use xlink:href="#DejaVuSans-73" transform="translate(789.25 0)"/>
       <use xlink:href="#DejaVuSans-5f" transform="translate(841.349609 0)"/>
       <use xlink:href="#DejaVuSans-52" transform="translate(891.349609 0)"/>
       <use xlink:href="#DejaVuSans-65" transform="translate(956.332031 0)"/>
       <use xlink:href="#DejaVuSans-61" transform="translate(1017.855469 0)"/>
       <use xlink:href="#DejaVuSans-6c" transform="translate(1079.134766 0)"/>
       <use xlink:href="#DejaVuSans-69" transform="translate(1106.917969 0)"/>
       <use xlink:href="#DejaVuSans-73" transform="translate(1134.701172 0)"/>
       <use xlink:href="#DejaVuSans-74" transform="translate(1186.800781 0)"/>
       <use xlink:href="#DejaVuSans-69" transform="translate(1226.009766 0)"/>
       <use xlink:href="#DejaVuSans-63" transform="translate(1253.792969 0)"/>
       <use xlink:href="#DejaVuSans-44" transform="translate(1308.773438 0)"/>
       <use xlink:href="#DejaVuSans-72" transform="translate(1385.775391 0)"/>
       <use xlink:href="#DejaVuSans-6f" transform="translate(1424.638672 0)"/>
       <use xlink:href="#DejaVuSans-70" transform="translate(1485.820312 0)"/>
       <use xlink:href="#DejaVuSans-4f" transform="translate(1549.296875 0)"/>
       <use xlink:href="#DejaVuSans-62" transform="translate(1628.007812 0)"/>
       <use xlink:href="#DejaVuSans-73" transform="translate(1691.484375 0)"/>
       <use xlink:href="#DejaVuSans-65" transform="translate(1743.583984 0)"/>
       <use xlink:href="#DejaVuSans-72" transform="translate(1805.107422 0)"/>
       <use xlink:href="#DejaVuSans-76" transform="translate(1846.220703 0)"/>
       <use xlink:href="#DejaVuSans-65" transform="translate(1905.400391 0)"/>
       <use xlink:href="#DejaVuSans-64" transform="translate(1966.923828 0)"/>
      </g>
     </g>
    </g>
    <g id="ytick_2">
     <g id="line2d_20">
      <g>
       <use xlink:href="#m2c3f9c54e3" x="196.937969" y="166.812481" style="stroke: #000000; stroke-width: 0.8"/>
      </g>
     </g>
     <g id="text_12">
      <!-- BenchmarkPaths_ControlledResetHeavy -->
      <g transform="translate(9.822656 170.231778) scale(0.09 -0.09)">
       <defs>
        <path id="DejaVuSans-43" d="M 4122 4306 
L 4122 3641 
Q 3803 3938 3442 4084 
Q 3081 4231 2675 4231 
Q 1875 4231 1450 3742 
Q 1025 3253 1025 2328 
Q 1025 1406 1450 917 
Q 1875 428 2675 428 
Q 3081 428 3442 575 
Q 3803 722 4122 1019 
L 4122 359 
Q 3791 134 3420 21 
Q 3050 -91 2638 -91 
Q 1578 -91 968 557 
Q 359 1206 359 2328 
Q 359 3453 968 4101 
Q 1578 4750 2638 4750 
Q 3056 4750 3426 4639 
Q 3797 4528 4122 4306 
z
" transform="scale(0.015625)"/>
        <path id="DejaVuSans-48" d="M 628 4666 
L 1259 4666 
L 1259 2753 
L 3553 2753 
L 3553 4666 
L 4184 4666 
L 4184 0 
L 3553 0 
L 3553 2222 
L 1259 2222 
L 1259 0 
L 628 0 
L 628 4666 
z
" transform="scale(0.015625)"/>
        <path id="DejaVuSans-79" d="M 2059 -325 
Q 1816 -950 1584 -1140 
Q 1353 -1331 966 -1331 
L 506 -1331 
L 506 -850 
L 844 -850 
Q 1081 -850 1212 -737 
Q 1344 -625 1503 -206 
L 1606 56 
L 191 3500 
L 800 3500 
L 1894 763 
L 2988 3500 
L 3597 3500 
L 2059 -325 
z
" transform="scale(0.015625)"/>
       </defs>
       <use xlink:href="#DejaVuSans-42"/>
       <use xlink:href="#DejaVuSans-65" transform="translate(68.603516 0)"/>
       <use xlink:href="#DejaVuSans-6e" transform="translate(130.126953 0)"/>
       <use xlink:href="#DejaVuSans-63" transform="translate(193.505859 0)"/>
       <use xlink:href="#DejaVuSans-68" transform="translate(248.486328 0)"/>
       <use xlink:href="#DejaVuSans-6d" transform="translate(311.865234 0)"/>
       <use xlink:href="#DejaVuSans-61" transform="translate(409.277344 0)"/>
       <use xlink:href="#DejaVuSans-72" transform="translate(470.556641 0)"/>
       <use xlink:href="#DejaVuSans-6b" transform="translate(511.669922 0)"/>
       <use xlink:href="#DejaVuSans-50" transform="translate(569.580078 0)"/>
       <use xlink:href="#DejaVuSans-61" transform="translate(625.382812 0)"/>
       <use xlink:href="#DejaVuSans-74" transform="translate(686.662109 0)"/>
       <use xlink:href="#DejaVuSans-68" transform="translate(725.871094 0)"/>
       <use xlink:href="#DejaVuSans-73" transform="translate(789.25 0)"/>
       <use xlink:href="#DejaVuSans-5f" transform="translate(841.349609 0)"/>
       <use xlink:href="#DejaVuSans-43" transform="translate(891.349609 0)"/>
       <use xlink:href="#DejaVuSans-6f" transform="translate(961.173828 0)"/>
       <use xlink:href="#DejaVuSans-6e" transform="translate(1022.355469 0)"/>
       <use xlink:href="#DejaVuSans-74" transform="translate(1085.734375 0)"/>
       <use xlink:href="#DejaVuSans-72" transform="translate(1124.943359 0)"/>
       <use xlink:href="#DejaVuSans-6f" transform="translate(1163.806641 0)"/>
       <use xlink:href="#DejaVuSans-6c" transform="translate(1224.988281 0)"/>
       <use xlink:href="#DejaVuSans-6c" transform="translate(1252.771484 0)"/>
       <use xlink:href="#DejaVuSans-65" transform="translate(1280.554688 0)"/>
       <use xlink:href="#DejaVuSans-64" transform="translate(1342.078125 0)"/>
       <use xlink:href="#DejaVuSans-52" transform="translate(1405.554688 0)"/>
       <use xlink:href="#DejaVuSans-65" transform="translate(1470.537109 0)"/>
       <use xlink:href="#DejaVuSans-73" transform="translate(1532.060547 0)"/>
       <use xlink:href="#DejaVuSans-65" transform="translate(1584.160156 0)"/>
       <use xlink:href="#DejaVuSans-74" transform="translate(1645.683594 0)"/>
       <use xlink:href="#DejaVuSans-48" transform="translate(1684.892578 0)"/>
       <use xlink:href="#DejaVuSans-65" transform="translate(1760.087891 0)"/>
       <use xlink:href="#DejaVuSans-61" transform="translate(1821.611328 0)"/>
       <use xlink:href="#DejaVuSans-76" transform="translate(1882.890625 0)"/>
       <use xlink:href="#DejaVuSans-79" transform="translate(1942.070312 0)"/>
      </g>
     </g>
    </g>
    <g id="ytick_3">
     <g id="line2d_21">
      <g>
       <use xlink:href="#m2c3f9c54e3" x="196.937969" y="124.698125" style="stroke: #000000; stroke-width: 0.8"/>
      </g>
     </g>
     <g id="text_13">
      <!-- BenchmarkPaths_RealisticRejected -->
      <g transform="translate(32.997656 128.117422) scale(0.09 -0.09)">
       <defs>
        <path id="DejaVuSans-6a" d="M 603 3500 
L 1178 3500 
L 1178 -63 
Q 1178 -731 923 -1031 
Q 669 -1331 103 -1331 
L -116 -1331 
L -116 -844 
L 38 -844 
Q 366 -844 484 -692 
Q 603 -541 603 -63 
L 603 3500 
z
M 603 4863 
L 1178 4863 
L 1178 4134 
L 603 4134 
L 603 4863 
z
" transform="scale(0.015625)"/>
       </defs>
       <use xlink:href="#DejaVuSans-42"/>
       <use xlink:href="#DejaVuSans-65" transform="translate(68.603516 0)"/>
       <use xlink:href="#DejaVuSans-6e" transform="translate(130.126953 0)"/>
       <use xlink:href="#DejaVuSans-63" transform="translate(193.505859 0)"/>
       <use xlink:href="#DejaVuSans-68" transform="translate(248.486328 0)"/>
       <use xlink:href="#DejaVuSans-6d" transform="translate(311.865234 0)"/>
       <use xlink:href="#DejaVuSans-61" transform="translate(409.277344 0)"/>
       <use xlink:href="#DejaVuSans-72" transform="translate(470.556641 0)"/>
       <use xlink:href="#DejaVuSans-6b" transform="translate(511.669922 0)"/>
       <use xlink:href="#DejaVuSans-50" transform="translate(569.580078 0)"/>
       <use xlink:href="#DejaVuSans-61" transform="translate(625.382812 0)"/>
       <use xlink:href="#DejaVuSans-74" transform="translate(686.662109 0)"/>
       <use xlink:href="#DejaVuSans-68" transform="translate(725.871094 0)"/>
       <use xlink:href="#DejaVuSans-73" transform="translate(789.25 0)"/>
       <use xlink:href="#DejaVuSans-5f" transform="translate(841.349609 0)"/>
       <use xlink:href="#DejaVuSans-52" transform="translate(891.349609 0)"/>
       <use xlink:href="#DejaVuSans-65" transform="translate(956.332031 0)"/>
       <use xlink:href="#DejaVuSans-61" transform="translate(1017.855469 0)"/>
       <use xlink:href="#DejaVuSans-6c" transform="translate(1079.134766 0)"/>
       <use xlink:href="#DejaVuSans-69" transform="translate(1106.917969 0)"/>
       <use xlink:href="#DejaVuSans-73" transform="translate(1134.701172 0)"/>
       <use xlink:href="#DejaVuSans-74" transform="translate(1186.800781 0)"/>
       <use xlink:href="#DejaVuSans-69" transform="translate(1226.009766 0)"/>
       <use xlink:href="#DejaVuSans-63" transform="translate(1253.792969 0)"/>
       <use xlink:href="#DejaVuSans-52" transform="translate(1308.773438 0)"/>
       <use xlink:href="#DejaVuSans-65" transform="translate(1373.755859 0)"/>
       <use xlink:href="#DejaVuSans-6a" transform="translate(1435.279297 0)"/>
       <use xlink:href="#DejaVuSans-65" transform="translate(1463.0625 0)"/>
       <use xlink:href="#DejaVuSans-63" transform="translate(1524.585938 0)"/>
       <use xlink:href="#DejaVuSans-74" transform="translate(1579.566406 0)"/>
       <use xlink:href="#DejaVuSans-65" transform="translate(1618.775391 0)"/>
       <use xlink:href="#DejaVuSans-64" transform="translate(1680.298828 0)"/>
      </g>
     </g>
    </g>
    <g id="ytick_4">
     <g id="line2d_22">
      <g>
       <use xlink:href="#m2c3f9c54e3" x="196.937969" y="82.583769" style="stroke: #000000; stroke-width: 0.8"/>
      </g>
     </g>
     <g id="text_14">
      <!-- BenchmarkPaths_RealisticAccepted -->
      <g transform="translate(30.223125 86.003066) scale(0.09 -0.09)">
       <defs>
        <path id="DejaVuSans-41" d="M 2188 4044 
L 1331 1722 
L 3047 1722 
L 2188 4044 
z
M 1831 4666 
L 2547 4666 
L 4325 0 
L 3669 0 
L 3244 1197 
L 1141 1197 
L 716 0 
L 50 0 
L 1831 4666 
z
" transform="scale(0.015625)"/>
       </defs>
       <use xlink:href="#DejaVuSans-42"/>
       <use xlink:href="#DejaVuSans-65" transform="translate(68.603516 0)"/>
       <use xlink:href="#DejaVuSans-6e" transform="translate(130.126953 0)"/>
       <use xlink:href="#DejaVuSans-63" transform="translate(193.505859 0)"/>
       <use xlink:href="#DejaVuSans-68" transform="translate(248.486328 0)"/>
       <use xlink:href="#DejaVuSans-6d" transform="translate(311.865234 0)"/>
       <use xlink:href="#DejaVuSans-61" transform="translate(409.277344 0)"/>
       <use xlink:href="#DejaVuSans-72" transform="translate(470.556641 0)"/>
       <use xlink:href="#DejaVuSans-6b" transform="translate(511.669922 0)"/>
       <use xlink:href="#DejaVuSans-50" transform="translate(569.580078 0)"/>
       <use xlink:href="#DejaVuSans-61" transform="translate(625.382812 0)"/>
       <use xlink:href="#DejaVuSans-74" transform="translate(686.662109 0)"/>
       <use xlink:href="#DejaVuSans-68" transform="translate(725.871094 0)"/>
       <use xlink:href="#DejaVuSans-73" transform="translate(789.25 0)"/>
       <use xlink:href="#DejaVuSans-5f" transform="translate(841.349609 0)"/>
       <use xlink:href="#DejaVuSans-52" transform="translate(891.349609 0)"/>
       <use xlink:href="#DejaVuSans-65" transform="translate(956.332031 0)"/>
       <use xlink:href="#DejaVuSans-61" transform="translate(1017.855469 0)"/>
       <use xlink:href="#DejaVuSans-6c" transform="translate(1079.134766 0)"/>
       <use xlink:href="#DejaVuSans-69" transform="translate(1106.917969 0)"/>
       <use xlink:href="#DejaVuSans-73" transform="translate(1134.701172 0)"/>
       <use xlink:href="#DejaVuSans-74" transform="translate(1186.800781 0)"/>
       <use xlink:href="#DejaVuSans-69" transform="translate(1226.009766 0)"/>
       <use xlink:href="#DejaVuSans-63" transform="translate(1253.792969 0)"/>
       <use xlink:href="#DejaVuSans-41" transform="translate(1308.773438 0)"/>
       <use xlink:href="#DejaVuSans-63" transform="translate(1375.431641 0)"/>
       <use xlink:href="#DejaVuSans-63" transform="translate(1430.412109 0)"/>
       <use xlink:href="#DejaVuSans-65" transform="translate(1485.392578 0)"/>
       <use xlink:href="#DejaVuSans-70" transform="translate(1546.916016 0)"/>
       <use xlink:href="#DejaVuSans-74" transform="translate(1610.392578 0)"/>
       <use xlink:href="#DejaVuSans-65" transform="translate(1649.601562 0)"/>
       <use xlink:href="#DejaVuSans-64" transform="translate(1711.125 0)"/>
      </g>
     </g>
    </g>
    <g id="ytick_5">
     <g id="line2d_23">
      <g>
       <use xlink:href="#m2c3f9c54e3" x="196.937969" y="40.469413" style="stroke: #000000; stroke-width: 0.8"/>
      </g>
     </g>
     <g id="text_15">
      <!-- BenchmarkPaths_ControlledAccepted -->
      <g transform="translate(21.511406 43.888709) scale(0.09 -0.09)">
       <use xlink:href="#DejaVuSans-42"/>
       <use xlink:href="#DejaVuSans-65" transform="translate(68.603516 0)"/>
       <use xlink:href="#DejaVuSans-6e" transform="translate(130.126953 0)"/>
       <use xlink:href="#DejaVuSans-63" transform="translate(193.505859 0)"/>
       <use xlink:href="#DejaVuSans-68" transform="translate(248.486328 0)"/>
       <use xlink:href="#DejaVuSans-6d" transform="translate(311.865234 0)"/>
       <use xlink:href="#DejaVuSans-61" transform="translate(409.277344 0)"/>
       <use xlink:href="#DejaVuSans-72" transform="translate(470.556641 0)"/>
       <use xlink:href="#DejaVuSans-6b" transform="translate(511.669922 0)"/>
       <use xlink:href="#DejaVuSans-50" transform="translate(569.580078 0)"/>
       <use xlink:href="#DejaVuSans-61" transform="translate(625.382812 0)"/>
       <use xlink:href="#DejaVuSans-74" transform="translate(686.662109 0)"/>
       <use xlink:href="#DejaVuSans-68" transform="translate(725.871094 0)"/>
       <use xlink:href="#DejaVuSans-73" transform="translate(789.25 0)"/>
       <use xlink:href="#DejaVuSans-5f" transform="translate(841.349609 0)"/>
       <use xlink:href="#DejaVuSans-43" transform="translate(891.349609 0)"/>
       <use xlink:href="#DejaVuSans-6f" transform="translate(961.173828 0)"/>
       <use xlink:href="#DejaVuSans-6e" transform="translate(1022.355469 0)"/>
       <use xlink:href="#DejaVuSans-74" transform="translate(1085.734375 0)"/>
       <use xlink:href="#DejaVuSans-72" transform="translate(1124.943359 0)"/>
       <use xlink:href="#DejaVuSans-6f" transform="translate(1163.806641 0)"/>
       <use xlink:href="#DejaVuSans-6c" transform="translate(1224.988281 0)"/>
       <use xlink:href="#DejaVuSans-6c" transform="translate(1252.771484 0)"/>
       <use xlink:href="#DejaVuSans-65" transform="translate(1280.554688 0)"/>
       <use xlink:href="#DejaVuSans-64" transform="translate(1342.078125 0)"/>
       <use xlink:href="#DejaVuSans-41" transform="translate(1405.554688 0)"/>
       <use xlink:href="#DejaVuSans-63" transform="translate(1472.212891 0)"/>
       <use xlink:href="#DejaVuSans-63" transform="translate(1527.193359 0)"/>
       <use xlink:href="#DejaVuSans-65" transform="translate(1582.173828 0)"/>
       <use xlink:href="#DejaVuSans-70" transform="translate(1643.697266 0)"/>
       <use xlink:href="#DejaVuSans-74" transform="translate(1707.173828 0)"/>
       <use xlink:href="#DejaVuSans-65" transform="translate(1746.382812 0)"/>
       <use xlink:href="#DejaVuSans-64" transform="translate(1807.90625 0)"/>
      </g>
     </g>
    </g>
   </g>
   <g id="patch_8">
    <path d="M 196.937969 227.078125 
L 196.937969 22.318125 
" style="fill: none; stroke: #000000; stroke-width: 0.8; stroke-linejoin: miter; stroke-linecap: square"/>
   </g>
   <g id="patch_9">
    <path d="M 849.097969 227.078125 
L 849.097969 22.318125 
" style="fill: none; stroke: #000000; stroke-width: 0.8; stroke-linejoin: miter; stroke-linecap: square"/>
   </g>
   <g id="patch_10">
    <path d="M 196.937969 227.078125 
L 849.097969 227.078125 
" style="fill: none; stroke: #000000; stroke-width: 0.8; stroke-linejoin: miter; stroke-linecap: square"/>
   </g>
   <g id="patch_11">
    <path d="M 196.937969 22.318125 
L 849.097969 22.318125 
" style="fill: none; stroke: #000000; stroke-width: 0.8; stroke-linejoin: miter; stroke-linecap: square"/>
   </g>
   <g id="text_16">
    <!--  2.000 -->
    <g transform="translate(779.223683 211.134337) scale(0.08 -0.08)">
     <defs>
      <path id="DejaVuSans-20" transform="scale(0.015625)"/>
     </defs>
     <use xlink:href="#DejaVuSans-20"/>
     <use xlink:href="#DejaVuSans-32" transform="translate(31.787109 0)"/>
     <use xlink:href="#DejaVuSans-2e" transform="translate(95.410156 0)"/>
     <use xlink:href="#DejaVuSans-30" transform="translate(127.197266 0)"/>
     <use xlink:href="#DejaVuSans-30" transform="translate(190.820312 0)"/>
     <use xlink:href="#DejaVuSans-30" transform="translate(254.443359 0)"/>
    </g>
   </g>
   <g id="text_17">
    <!--  0 -->
    <g transform="translate(196.937969 169.019981) scale(0.08 -0.08)">
     <use xlink:href="#DejaVuSans-20"/>
     <use xlink:href="#DejaVuSans-30" transform="translate(31.787109 0)"/>
    </g>
   </g>
   <g id="text_18">
    <!--  2.000 -->
    <g transform="translate(779.223683 126.905625) scale(0.08 -0.08)">
     <use xlink:href="#DejaVuSans-20"/>
     <use xlink:href="#DejaVuSans-32" transform="translate(31.787109 0)"/>
     <use xlink:href="#DejaVuSans-2e" transform="translate(95.410156 0)"/>
     <use xlink:href="#DejaVuSans-30" transform="translate(127.197266 0)"/>
     <use xlink:href="#DejaVuSans-30" transform="translate(190.820312 0)"/>
     <use xlink:href="#DejaVuSans-30" transform="translate(254.443359 0)"/>
    </g>
   </g>
   <g id="text_19">
    <!--  0 -->
    <g transform="translate(196.937969 84.791269) scale(0.08 -0.08)">
     <use xlink:href="#DejaVuSans-20"/>
     <use xlink:href="#DejaVuSans-30" transform="translate(31.787109 0)"/>
    </g>
   </g>
   <g id="text_20">
    <!--  0 -->
    <g transform="translate(196.937969 42.676913) scale(0.08 -0.08)">
     <use xlink:href="#DejaVuSans-20"/>
     <use xlink:href="#DejaVuSans-30" transform="translate(31.787109 0)"/>
    </g>
   </g>
   <g id="text_21">
    <!-- initial-baseline: paths allocs/op snapshot (median) -->
    <g transform="translate(371.660469 16.318125) scale(0.12 -0.12)">
     <defs>
      <path id="DejaVuSans-2d" d="M 313 2009 
L 1997 2009 
L 1997 1497 
L 313 1497 
L 313 2009 
z
" transform="scale(0.015625)"/>
      <path id="DejaVuSans-3a" d="M 750 794 
L 1409 794 
L 1409 0 
L 750 0 
L 750 794 
z
M 750 3309 
L 1409 3309 
L 1409 2516 
L 750 2516 
L 750 3309 
z
" transform="scale(0.015625)"/>
      <path id="DejaVuSans-28" d="M 1984 4856 
Q 1566 4138 1362 3434 
Q 1159 2731 1159 2009 
Q 1159 1288 1364 580 
Q 1569 -128 1984 -844 
L 1484 -844 
Q 1016 -109 783 600 
Q 550 1309 550 2009 
Q 550 2706 781 3412 
Q 1013 4119 1484 4856 
L 1984 4856 
z
" transform="scale(0.015625)"/>
      <path id="DejaVuSans-29" d="M 513 4856 
L 1013 4856 
Q 1481 4119 1714 3412 
Q 1947 2706 1947 2009 
Q 1947 1309 1714 600 
Q 1481 -109 1013 -844 
L 513 -844 
Q 928 -128 1133 580 
Q 1338 1288 1338 2009 
Q 1338 2731 1133 3434 
Q 928 4138 513 4856 
z
" transform="scale(0.015625)"/>
     </defs>
     <use xlink:href="#DejaVuSans-69"/>
     <use xlink:href="#DejaVuSans-6e" transform="translate(27.783203 0)"/>
     <use xlink:href="#DejaVuSans-69" transform="translate(91.162109 0)"/>
     <use xlink:href="#DejaVuSans-74" transform="translate(118.945312 0)"/>
     <use xlink:href="#DejaVuSans-69" transform="translate(158.154297 0)"/>
     <use xlink:href="#DejaVuSans-61" transform="translate(185.9375 0)"/>
     <use xlink:href="#DejaVuSans-6c" transform="translate(247.216797 0)"/>
     <use xlink:href="#DejaVuSans-2d" transform="translate(275 0)"/>
     <use xlink:href="#DejaVuSans-62" transform="translate(311.083984 0)"/>
     <use xlink:href="#DejaVuSans-61" transform="translate(374.560547 0)"/>
     <use xlink:href="#DejaVuSans-73" transform="translate(435.839844 0)"/>
     <use xlink:href="#DejaVuSans-65" transform="translate(487.939453 0)"/>
     <use xlink:href="#DejaVuSans-6c" transform="translate(549.462891 0)"/>
     <use xlink:href="#DejaVuSans-69" transform="translate(577.246094 0)"/>
     <use xlink:href="#DejaVuSans-6e" transform="translate(605.029297 0)"/>
     <use xlink:href="#DejaVuSans-65" transform="translate(668.408203 0)"/>
     <use xlink:href="#DejaVuSans-3a" transform="translate(729.931641 0)"/>
     <use xlink:href="#DejaVuSans-20" transform="translate(763.623047 0)"/>
     <use xlink:href="#DejaVuSans-70" transform="translate(795.410156 0)"/>
     <use xlink:href="#DejaVuSans-61" transform="translate(858.886719 0)"/>
     <use xlink:href="#DejaVuSans-74" transform="translate(920.166016 0)"/>
     <use xlink:href="#DejaVuSans-68" transform="translate(959.375 0)"/>
     <use xlink:href="#DejaVuSans-73" transform="translate(1022.753906 0)"/>
     <use xlink:href="#DejaVuSans-20" transform="translate(1074.853516 0)"/>
     <use xlink:href="#DejaVuSans-61" transform="translate(1106.640625 0)"/>
     <use xlink:href="#DejaVuSans-6c" transform="translate(1167.919922 0)"/>
     <use xlink:href="#DejaVuSans-6c" transform="translate(1195.703125 0)"/>
     <use xlink:href="#DejaVuSans-6f" transform="translate(1223.486328 0)"/>
     <use xlink:href="#DejaVuSans-63" transform="translate(1284.667969 0)"/>
     <use xlink:href="#DejaVuSans-73" transform="translate(1339.648438 0)"/>
     <use xlink:href="#DejaVuSans-2f" transform="translate(1391.748047 0)"/>
     <use xlink:href="#DejaVuSans-6f" transform="translate(1425.439453 0)"/>
     <use xlink:href="#DejaVuSans-70" transform="translate(1486.621094 0)"/>
     <use xlink:href="#DejaVuSans-20" transform="translate(1550.097656 0)"/>
     <use xlink:href="#DejaVuSans-73" transform="translate(1581.884766 0)"/>
     <use xlink:href="#DejaVuSans-6e" transform="translate(1633.984375 0)"/>
     <use xlink:href="#DejaVuSans-61" transform="translate(1697.363281 0)"/>
     <use xlink:href="#DejaVuSans-70" transform="translate(1758.642578 0)"/>
     <use xlink:href="#DejaVuSans-73" transform="translate(1822.119141 0)"/>
     <use xlink:href="#DejaVuSans-68" transform="translate(1874.21875 0)"/>
     <use xlink:href="#DejaVuSans-6f" transform="translate(1937.597656 0)"/>
     <use xlink:href="#DejaVuSans-74" transform="translate(1998.779297 0)"/>
     <use xlink:href="#DejaVuSans-20" transform="translate(2037.988281 0)"/>
     <use xlink:href="#DejaVuSans-28" transform="translate(2069.775391 0)"/>
     <use xlink:href="#DejaVuSans-6d" transform="translate(2108.789062 0)"/>
     <use xlink:href="#DejaVuSans-65" transform="translate(2206.201172 0)"/>
     <use xlink:href="#DejaVuSans-64" transform="translate(2267.724609 0)"/>
     <use xlink:href="#DejaVuSans-69" transform="translate(2331.201172 0)"/>
     <use xlink:href="#DejaVuSans-61" transform="translate(2358.984375 0)"/>
     <use xlink:href="#DejaVuSans-6e" transform="translate(2420.263672 0)"/>
     <use xlink:href="#DejaVuSans-29" transform="translate(2483.642578 0)"/>
    </g>
   </g>
  </g>
 </g>
 <defs>
  <clipPath id="p26fb15be67">
   <rect x="196.937969" y="22.318125" width="652.16" height="204.76"/>
  </clipPath>
 </defs>
</svg>
